<svg width="21" height="21" viewBox="0 0 21 21" fill="none" xmlns="http://www.w3.org/2000/svg">
<path d="M11.5416 18.7687C13.6429 18.5013 15.5636 17.4438 16.9133 15.8111C18.2629 14.1785 18.9403 12.0932 18.8076 9.97906C18.675 7.86493 17.7423 5.88063 16.1991 4.42948C14.656 2.97833 12.6182 2.16921 10.4999 2.16659C8.37904 2.16501 6.33736 2.97215 4.7909 4.42354C3.24443 5.87494 2.30954 7.86137 2.17673 9.97808C2.04393 12.0948 2.72319 14.1825 4.07611 15.8158C5.42903 17.4491 7.35381 18.5051 9.45825 18.7687V12.5833H7.37492V10.4999H9.45825V8.777C9.45825 7.38429 9.60408 6.87908 9.87492 6.36971C10.1417 5.86574 10.554 5.45376 11.0583 5.18742C11.4562 4.97388 11.951 4.84575 12.8155 4.79054C13.1583 4.76867 13.602 4.79575 14.1468 4.87388V6.85304H13.6249C12.6697 6.85304 12.2749 6.89784 12.0395 7.02388C11.899 7.09612 11.7847 7.21049 11.7124 7.35096C11.5874 7.58638 11.5416 7.81971 11.5416 8.77596V10.4999H14.1458L13.6249 12.5833H11.5416V18.7687ZM10.4999 20.9166C4.74679 20.9166 0.083252 16.253 0.083252 10.4999C0.083252 4.74679 4.74679 0.083252 10.4999 0.083252C16.253 0.083252 20.9166 4.74679 20.9166 10.4999C20.9166 16.253 16.253 20.9166 10.4999 20.9166Z" fill="white"/>
</svg>
