<svg width="25" height="25" viewBox="0 0 25 25" fill="none" xmlns="http://www.w3.org/2000/svg">
<path d="M12.4999 20.8333C14.7101 20.8333 16.8297 19.9553 18.3925 18.3925C19.9553 16.8297 20.8333 14.7101 20.8333 12.4999C20.8333 10.2898 19.9553 8.17017 18.3925 6.60736C16.8297 5.04456 14.7101 4.16659 12.4999 4.16659C10.2898 4.16659 8.17017 5.04456 6.60736 6.60736C5.04456 8.17017 4.16659 10.2898 4.16659 12.4999C4.16659 14.7101 5.04456 16.8297 6.60736 18.3925C8.17017 19.9553 10.2898 20.8333 12.4999 20.8333V20.8333ZM12.4999 22.9166C6.74679 22.9166 2.08325 18.253 2.08325 12.4999C2.08325 6.74679 6.74679 2.08325 12.4999 2.08325C18.253 2.08325 22.9166 6.74679 22.9166 12.4999C22.9166 18.253 18.253 22.9166 12.4999 22.9166Z" fill="white"/>
<path d="M17.7082 9.31972C17.3248 9.48639 16.9134 9.60097 16.4811 9.65097C16.9228 9.39055 17.2603 8.97805 17.4207 8.48743C16.9998 8.73271 16.5406 8.90526 16.0623 8.99785C15.8612 8.78699 15.6192 8.61931 15.3511 8.50505C15.083 8.39079 14.7944 8.33234 14.503 8.33326C13.3228 8.33326 12.3665 9.27597 12.3665 10.4374C12.3665 10.602 12.3853 10.7624 12.4217 10.9166C11.5752 10.8764 10.7463 10.6602 9.98801 10.2817C9.22971 9.90331 8.55861 9.37097 8.01755 8.71868C7.82751 9.03858 7.72745 9.40388 7.72796 9.77597C7.72796 10.5051 8.10609 11.151 8.679 11.527C8.33988 11.5164 8.00802 11.4261 7.71025 11.2635V11.2895C7.71347 11.7785 7.88609 12.2513 8.19871 12.6274C8.51133 13.0034 8.94463 13.2595 9.42484 13.352C9.10958 13.4354 8.77972 13.4475 8.45921 13.3874C8.59893 13.8081 8.86616 14.1749 9.22382 14.4368C9.58147 14.6987 10.0118 14.8427 10.455 14.8489C9.69459 15.4349 8.76092 15.7515 7.80088 15.7489C7.629 15.7489 7.45921 15.7385 7.2915 15.7197C8.27116 16.3398 9.40709 16.6682 10.5665 16.6666C14.4978 16.6666 16.6467 13.4603 16.6467 10.6791L16.6394 10.4062C17.0585 10.1117 17.4206 9.74356 17.7082 9.31972V9.31972Z" fill="white"/>
</svg>
