<svg width="25" height="25" viewBox="0 0 25 25" fill="none" xmlns="http://www.w3.org/2000/svg">
<path fill-rule="evenodd" clip-rule="evenodd" d="M23.4375 3.125C23.4375 2.7106 23.2729 2.31317 22.9799 2.02015C22.6868 1.72712 22.2894 1.5625 21.875 1.5625H3.125C2.7106 1.5625 2.31317 1.72712 2.02015 2.02015C1.72712 2.31317 1.5625 2.7106 1.5625 3.125V21.875C1.5625 22.2894 1.72712 22.6868 2.02015 22.9799C2.31317 23.2729 2.7106 23.4375 3.125 23.4375H21.875C22.2894 23.4375 22.6868 23.2729 22.9799 22.9799C23.2729 22.6868 23.4375 22.2894 23.4375 21.875V3.125ZM0 3.125C0 2.2962 0.32924 1.50134 0.915291 0.915291C1.50134 0.32924 2.2962 0 3.125 0L21.875 0C22.7038 0 23.4987 0.32924 24.0847 0.915291C24.6708 1.50134 25 2.2962 25 3.125V21.875C25 22.7038 24.6708 23.4987 24.0847 24.0847C23.4987 24.6708 22.7038 25 21.875 25H3.125C2.2962 25 1.50134 24.6708 0.915291 24.0847C0.32924 23.4987 0 22.7038 0 21.875V3.125ZM7.03125 11.7188C6.82405 11.7188 6.62534 11.8011 6.47882 11.9476C6.33231 12.0941 6.25 12.2928 6.25 12.5C6.25 12.7072 6.33231 12.9059 6.47882 13.0524C6.62534 13.1989 6.82405 13.2812 7.03125 13.2812H16.0828L12.7281 16.6344C12.6555 16.707 12.5979 16.7932 12.5586 16.8882C12.5192 16.9831 12.499 17.0848 12.499 17.1875C12.499 17.2902 12.5192 17.3919 12.5586 17.4868C12.5979 17.5818 12.6555 17.668 12.7281 17.7406C12.8008 17.8133 12.887 17.8709 12.9819 17.9102C13.0768 17.9495 13.1785 17.9697 13.2812 17.9697C13.384 17.9697 13.4857 17.9495 13.5806 17.9102C13.6755 17.8709 13.7617 17.8133 13.8344 17.7406L18.5219 13.0531C18.5946 12.9806 18.6524 12.8943 18.6917 12.7994C18.7311 12.7045 18.7514 12.6028 18.7514 12.5C18.7514 12.3972 18.7311 12.2955 18.6917 12.2006C18.6524 12.1057 18.5946 12.0194 18.5219 11.9469L13.8344 7.25937C13.7617 7.18674 13.6755 7.12912 13.5806 7.08981C13.4857 7.0505 13.384 7.03026 13.2812 7.03026C13.1785 7.03026 13.0768 7.0505 12.9819 7.08981C12.887 7.12912 12.8008 7.18674 12.7281 7.25937C12.6555 7.33201 12.5979 7.41825 12.5586 7.51315C12.5192 7.60806 12.499 7.70978 12.499 7.8125C12.499 7.91522 12.5192 8.01694 12.5586 8.11185C12.5979 8.20675 12.6555 8.29299 12.7281 8.36563L16.0828 11.7188H7.03125Z" fill="#777777"/>
</svg>
